{"title":"Yogi Bear 2010 TS V2 XviD Feel-Free","uid":6171849,"size":655789483,"categoryP":"video","categoryS":"movies","magnet":"?xt=urn:btih:ba87949c35223728d81cfcafb662b083ce204edb&amp;dn=Yogi+Bear+2010+TS+V2+XviD+Feel-Free&amp;tr=udp%3A%2F%2Ftracker.openbittorrent.com%3A80&amp;tr=udp%3A%2F%2Fopen.demonii.com%3A1337&amp;tr=udp%3A%2F%2Ftracker.coppersurfer.tk%3A6969&amp;tr=udp%3A%2F%2Fexodus.desync.com%3A6969","seeders":0,"leechers":1,"uploader":"hiest","files":-1,"time":1297613124,"description":"Genre:Animation | Adventure | Comedy\nLanguage:English\nIMDb:http://www.imdb.com/title/tt1302067/\nSource:SERENiTY/IMAGINE Thx.\n\n\nFormat : AVI\nFormat/Info : Audio Video Interleave\nFile size : 622 MiB\nDuration : 1h 12mn\nOverall bit rate : 1 193 Kbps\n\nVideo\nCodec ID/Hint : XviD\nDuration : 1h 12mn\nBit rate : 960 Kbps\nWidth : 720 pixels\nHeight : 384 pixels\nDisplay aspect ratio : 1.875\nFrame rate : 25.000 fps\nColor space : YUV\nChroma subsampling : 4:2:0\nBit depth : 8 bits\nScan type : Progressive\nBits/(Pixel*Frame) : 0.139\nStream size : 500 MiB (80%)\nWriting library : XviD 1.2.1\n\nAudio\nID : 1\nFormat : AC-3\nFormat/Info : Audio Coding 3\nMode extension : CM (complete main)\nCodec ID : 2000\nDuration : 1h 12mn\nBit rate mode : Constant\nBit rate : 224 Kbps\nChannel(s) : 2 channels\nChannel positions : Front: L R\nSampling rate : 48.0 KHz\nBit depth : 16 bits\nStream size : 117 MiB (19%)\nAlignment : Aligned on interleaves\nInterleave, duration : 40 ms (1.00 video frame)\nInterleave, preload duration : 512 ms\n\n\nPlot:\nA documentary filmmaker travels to Jellystone Park to shoot a project and soon crosses paths with Yogi Bear, his sidekick Boo-Boo, and Ranger Smith\n\n\n\n\n\n\n\n\n================================== &lt;a href=&quot;\nhttp://thepiratebay.se/user/hiest&quot; rel=&quot;nofollow&quot; target=&quot;_NEW&quot;&gt;\nhttp://thepiratebay.se/user/hiest&lt;/a&gt;\n==================================\n\n\n\n\n\n\n\n\n\nScreenshots:\n &lt;a href=&quot;\nhttp://rapidhdd.com/images/239839vlcsnap-00001.png&quot; rel=&quot;nofollow&quot; target=&quot;_NEW&quot;&gt;\nhttp://rapidhdd.com/images/239839vlcsnap-00001.png&lt;/a&gt;\n &lt;a href=&quot;\nhttp://www.rapidhdd.com/images/723280vlcsnap-00002.png&quot; rel=&quot;nofollow&quot; target=&quot;_NEW&quot;&gt;\nhttp://www.rapidhdd.com/images/723280vlcsnap-00002.png&lt;/a&gt;\n &lt;a href=&quot;\nhttp://www.rapidhdd.com/images/332760vlcsnap-00004.png&quot; rel=&quot;nofollow&quot; target=&quot;_NEW&quot;&gt;\nhttp://www.rapidhdd.com/images/332760vlcsnap-00004.png&lt;/a&gt;\n &lt;a href=&quot;\nhttp://www.rapidhdd.com/images/50452vlcsnap-00003.png&quot; rel=&quot;nofollow&quot; target=&quot;_NEW&quot;&gt;\nhttp://www.rapidhdd.com/images/50452vlcsnap-00003.png&lt;/a&gt;\n &lt;a href=&quot;\nhttp://www.rapidhdd.com/images/104055vlcsnap-00005.png&quot; rel=&quot;nofollow&quot; target=&quot;_NEW&quot;&gt;\nhttp://www.rapidhdd.com/images/104055vlcsnap-00005.png&lt;/a&gt;\n &lt;a href=&quot;\nhttp://www.rapidhdd.com/images/129654vlcsnap-00007.png&quot; rel=&quot;nofollow&quot; target=&quot;_NEW&quot;&gt;\nhttp://www.rapidhdd.com/images/129654vlcsnap-00007.png&lt;/a&gt;","torrent":{"xt":"urn:btih:ba87949c35223728d81cfcafb662b083ce204edb","amp;dn":"Yogi+Bear+2010+TS+V2+XviD+Feel-Free","amp;tr":["udp%3A%2F%2Ftracker.openbittorrent.com%3A80","udp%3A%2F%2Fopen.demonii.com%3A1337","udp%3A%2F%2Ftracker.coppersurfer.tk%3A6969","udp%3A%2F%2Fexodus.desync.com%3A6969"],"infoHash":"ba87949c35223728d81cfcafb662b083ce204edb","infoHashBuffer":{"type":"Buffer","data":[186,135,148,156,53,34,55,40,216,28,252,175,182,98,176,131,206,32,78,219]},"announce":[],"urlList":[]}}